<svg width="1400" height="45" viewBox="0 0 1400 45" fill="none" xmlns="http://www.w3.org/2000/svg">
<g opacity="0.05" clip-path="url(#clip0_1_273)">
<path d="M151.914 0H86.57L-10.2359 111.038H55.1081L151.914 0Z" fill="#E7EAEE"/>
<path d="M67.1484 0H1.80441L-95.0016 111.038H-29.6575L67.1484 0Z" fill="#E7EAEE"/>
<path d="M489.312 0H423.968L327.163 111.038H392.507L489.312 0Z" fill="#E7EAEE"/>
<path d="M826.711 0H761.367L664.561 111.038H729.905L826.711 0Z" fill="#E7EAEE"/>
<path d="M1160.62 0H1095.27L998.467 111.038H1063.81L1160.62 0Z" fill="#E7EAEE"/>
<path d="M319.898 0H254.554L157.748 111.038H223.092L319.898 0Z" fill="#E7EAEE"/>
<path d="M657.297 0H591.953L495.147 111.038H560.491L657.297 0Z" fill="#E7EAEE"/>
<path d="M994.695 0H929.351L832.545 111.038H897.889L994.695 0Z" fill="#E7EAEE"/>
<path d="M1328.6 0H1263.26L1166.45 111.038H1231.8L1328.6 0Z" fill="#E7EAEE"/>
<path d="M235.906 0H170.562L73.7563 111.038H139.1L235.906 0Z" fill="#E7EAEE"/>
<path d="M573.305 0H507.961L411.155 111.038H476.499L573.305 0Z" fill="#E7EAEE"/>
<path d="M910.703 0H845.359L748.553 111.038H813.897L910.703 0Z" fill="#E7EAEE"/>
<path d="M1244.61 0H1179.27L1082.46 111.038H1147.8L1244.61 0Z" fill="#E7EAEE"/>
<path d="M403.891 0H338.547L241.741 111.038H307.085L403.891 0Z" fill="#E7EAEE"/>
<path d="M741.289 0H675.945L579.139 111.038H644.483L741.289 0Z" fill="#E7EAEE"/>
<path d="M1078.69 0H1013.34L916.538 111.038H981.882L1078.69 0Z" fill="#E7EAEE"/>
<path d="M1412.59 0H1347.25L1250.44 111.038H1315.79L1412.59 0Z" fill="#E7EAEE"/>
<path d="M1503.5 0H1438.16L1341.35 111.038H1406.69L1503.5 0Z" fill="#E7EAEE"/>
</g>
<defs>
<clipPath id="clip0_1_273">
<rect width="1599" height="45" fill="white" transform="translate(-95)"/>
</clipPath>
</defs>
</svg>
