<svg width="115" height="43" viewBox="0 0 115 43" fill="none" xmlns="http://www.w3.org/2000/svg">
<g clip-path="url(#clip0_1_415)">
<mask id="mask0_1_415" style="mask-type:luminance" maskUnits="userSpaceOnUse" x="0" y="0" width="115" height="43">
<path d="M114.375 0.855469H0.75V42.868H114.375V0.855469Z" fill="white"/>
</mask>
<g mask="url(#mask0_1_415)">
<path d="M106.453 9.147L113.512 6.89844L107.966 14.5089L106.453 9.147Z" fill="#0C94FF"/>
<path d="M108.807 17.4508L106.455 9.14844L89.9844 42.7039L108.807 17.4508Z" fill="#0B6FBD"/>
<path d="M108.803 17.4525L83.5938 0.847656L100.736 28.1764L108.803 17.4525Z" fill="#0C94FF"/>
<path d="M1.03906 24.4857C1.03906 29.5243 4.85908 33.2487 9.90024 33.2487C11.9668 33.2487 13.7829 32.7166 15.3172 31.6212C16.8514 30.5258 17.8534 29.0862 18.3231 27.271L15.8494 26.6451C15.004 29.5243 12.8748 30.9953 9.90024 30.9953C6.29941 30.9953 3.60661 28.429 3.60661 24.4857C3.60661 20.5423 6.29941 17.976 9.90024 17.976C12.8748 17.976 15.004 19.447 15.8494 22.3262L18.3231 21.7002C17.8534 19.8852 16.8514 18.4455 15.3172 17.35C13.7829 16.2547 11.9668 15.7227 9.90024 15.7227C4.85908 15.7227 1.03906 19.5095 1.03906 24.4857Z" fill="#333333"/>
<path d="M39.278 25.0819C39.278 20.356 35.6146 16.9761 30.6986 16.9761C27.8493 16.9761 25.3444 17.9776 23.8414 19.6989H23.8101C24.499 15.2235 26.7847 13.5648 32.3269 12.8763C35.6772 12.4694 37.5247 12.0626 38.7458 11.4679L37.8691 9.37109C37.0237 9.71535 36.1783 9.96572 35.3328 10.1535C34.5186 10.31 33.3915 10.4978 31.9198 10.6542C23.8101 11.687 21.1173 15.0671 21.0234 23.9238C21.0234 29.6511 24.6242 33.1876 30.2603 33.1876C35.458 33.1876 39.278 29.8076 39.278 25.0819ZM36.7418 25.0193C36.7418 28.5558 34.0178 30.9342 30.2603 30.9342C28.319 30.9342 26.7534 30.4022 25.5635 29.3382C24.3737 28.2427 23.7788 26.8032 23.7788 25.0193C23.7788 23.2354 24.3737 21.7957 25.5949 20.7317C26.816 19.6363 28.4443 19.1042 30.4169 19.1042C34.2055 19.1042 36.7418 21.3889 36.7418 25.0193Z" fill="#333333"/>
<path d="M58.1317 16.1914H55.3136L45.3879 29.3046H45.3565V16.1914H42.8203V32.7785H45.5758L55.5329 19.6653H55.5642V32.7785H58.1317V16.1914Z" fill="#333333"/>
<path d="M61.6484 24.4857C61.6484 29.5243 65.4684 33.2487 70.5096 33.2487C72.5762 33.2487 74.3922 32.7166 75.9265 31.6212C77.4607 30.5258 78.4627 29.0862 78.9324 27.271L76.4588 26.6451C75.6133 29.5243 73.4841 30.9953 70.5096 30.9953C66.9088 30.9953 64.216 28.429 64.216 24.4857C64.216 20.5423 66.9088 17.976 70.5096 17.976C73.4841 17.976 75.6133 19.447 76.4588 22.3262L78.9324 21.7002C78.4627 19.8852 77.4607 18.4455 75.9265 17.35C74.3922 16.2547 72.5762 15.7227 70.5096 15.7227C65.4684 15.7227 61.6484 19.5095 61.6484 24.4857Z" fill="#333333"/>
</g>
</g>
<defs>
<clipPath id="clip0_1_415">
<rect width="113.625" height="42.0126" fill="white" transform="translate(0.757812 0.863281)"/>
</clipPath>
</defs>
</svg>
