<svg width="22" height="22" viewBox="0 0 22 22" fill="none" xmlns="http://www.w3.org/2000/svg">
<path d="M10.5132 18.7633L11.4854 19.7354L19.7354 11.4854C21.8982 9.32257 21.8982 5.8012 19.7354 3.63832C17.5711 1.47407 14.0525 1.47407 11.8882 3.63832L2.95074 12.5758C1.166 14.3606 1.166 17.2632 2.95074 19.0479C3.84174 19.9389 5.01462 20.3872 6.18749 20.3872C7.36037 20.3872 8.53187 19.9403 9.42424 19.0479L17.6742 10.7979C18.3549 10.1173 18.7289 9.21257 18.7289 8.25007C18.7289 7.28757 18.3549 6.38282 17.6729 5.70082C16.3116 4.33957 13.937 4.33957 12.5757 5.70082L5.01324 13.2633L5.98537 14.2354L13.5479 6.67295C14.388 5.83282 15.8606 5.83282 16.7007 6.67295C17.1215 7.0937 17.3539 7.65332 17.3539 8.25007C17.3539 8.84682 17.1215 9.40645 16.7007 9.82582L8.45074 18.0758C7.20224 19.3243 5.17137 19.3243 3.92287 18.0758C2.67437 16.8273 2.67437 14.7964 3.92287 13.5479L12.8604 4.61045C14.4884 2.98245 17.1352 2.98245 18.7632 4.61045C20.3912 6.23845 20.3912 8.88532 18.7632 10.5133L10.5132 18.7633Z" fill="black"/>
</svg>
