<svg width="18" height="19" viewBox="0 0 18 19" fill="currentColor" xmlns="http://www.w3.org/2000/svg">
<g id="messages-silhouette_20173 2" clip-path="url(#clip0_1_338)">
<g id="Group">
<path id="Vector" d="M8.29956 10.2189C8.44093 10.3735 8.67751 10.4715 8.93027 10.4712C9.1827 10.4733 9.41994 10.3717 9.55436 10.2252L15.7898 3.57837C16.2069 3.13386 16.0652 2.77344 15.4731 2.77344H2.4319C1.84011 2.77344 1.69742 3.13491 2.11292 3.58077L8.29956 10.2189Z" fill="currentColor"/>
<path id="Vector_2" d="M1.15558 13.7741L5.39972 9.17947L1.15917 4.62914C0.743337 4.18323 0.40625 4.32976 0.40625 4.95641V13.451C0.40625 14.0773 0.741681 14.2221 1.15558 13.7741Z" fill="currentColor"/>
<path id="Vector_3" d="M2.43315 15.6413H15.3791C15.9709 15.6413 16.1156 15.2778 15.702 14.8298L11.4797 10.2519L10.5379 11.2574C10.0964 11.7253 9.50917 11.934 8.93584 11.935C8.36443 11.9343 7.77298 11.7246 7.32583 11.2501L6.36858 10.2227L2.11125 14.8305C1.69735 15.2781 1.84137 15.6413 2.43315 15.6413Z" fill="currentColor"/>
<path id="Vector_4" d="M17.4064 13.4487V5.06676C17.4064 4.44017 17.0683 4.29258 16.6511 4.73703L12.4531 9.21129L16.658 13.7714C17.0712 14.2198 17.4064 14.0753 17.4064 13.4487Z" fill="currentColor"/>
</g>
</g>
<defs>
<clipPath id="clip0_1_338">
<rect width="17" height="18" fill="currentColor" transform="translate(0.40625 0.207031)"/>
</clipPath>
</defs>
</svg>
