<svg width="15" height="19" viewBox="0 0 15 19" fill="currentColor" xmlns="http://www.w3.org/2000/svg">
<path id="Subtract" fill-rule="evenodd" clip-rule="evenodd" d="M7.98285 17.9064C9.74922 15.7586 14.0912 10.1731 14.0912 7.16277C14.0912 3.38379 11.0277 0.320312 7.24871 0.320312C3.46973 0.320312 0.40625 3.38379 0.40625 7.16277C0.40625 10.1731 4.74821 15.7586 6.51457 17.9064C6.89945 18.3743 7.59798 18.3743 7.98285 17.9064ZM7.25203 9.87125C8.74605 9.87125 9.95719 8.66011 9.95719 7.1661C9.95719 5.67208 8.74605 4.46094 7.25203 4.46094C5.75802 4.46094 4.54688 5.67208 4.54688 7.1661C4.54688 8.66011 5.75802 9.87125 7.25203 9.87125Z" fill="currentColor"/>
</svg>
