<svg width="17" height="17" viewBox="0 0 17 17" fill="currentColor" xmlns="http://www.w3.org/2000/svg">
<g clip-path="url(#clip0_1_58)">
<path d="M5.06597 8.10649C5.98597 9.97743 7.465 11.5079 9.27625 12.4599L10.6818 11.0022C10.8575 10.8203 11.1099 10.7675 11.3303 10.8402C12.0458 11.0848 12.8157 11.217 13.6111 11.217C13.9657 11.217 14.25 11.5112 14.25 11.8781V14.192C14.25 14.5589 13.9657 14.8531 13.6111 14.8531C7.61194 14.8531 2.75 9.82207 2.75 3.61424C2.75 3.24732 3.0375 2.95312 3.38889 2.95312H5.625C5.97958 2.95312 6.26389 3.24732 6.26389 3.61424C6.26389 4.43732 6.39167 5.23396 6.62806 5.9744C6.69833 6.20249 6.64722 6.46362 6.47153 6.64543L5.06597 8.10649Z" fill="currentColor"/>
</g>
<defs>
<clipPath id="clip0_1_58">
<rect width="15.3333" height="15.8667" fill="currentColor" transform="translate(0.835938 0.96875)"/>
</clipPath>
</defs>
</svg>
