<svg width="27" height="27" viewBox="0 0 27 27" fill="none" xmlns="http://www.w3.org/2000/svg">
<g clip-path="url(#clip0_1_914)">
<path d="M26.4727 4.21875C26.7639 4.21875 27 3.98266 27 3.69141V0.527344C27 0.236092 26.7639 0 26.4727 0H23.3086C23.0173 0 22.7812 0.236092 22.7812 0.527344V1.58203H4.21875V0.527344C4.21875 0.236092 3.98266 0 3.69141 0H0.527344C0.236092 0 0 0.236092 0 0.527344V3.69141C0 3.98266 0.236092 4.21875 0.527344 4.21875H1.58203V22.7812H0.527344C0.236092 22.7812 0 23.0173 0 23.3086V26.4727C0 26.7639 0.236092 27 0.527344 27H3.69141C3.98266 27 4.21875 26.7639 4.21875 26.4727V25.418H22.7812V26.4727C22.7812 26.7639 23.0173 27 23.3085 27H26.4726C26.7639 27 26.9999 26.7639 26.9999 26.4727V23.3086C26.9999 23.0173 26.7639 22.7812 26.4726 22.7812H25.4179V4.21875H26.4727ZM23.8359 1.05469H25.9453V3.16406H23.8359V1.05469ZM1.05469 1.05469H3.16406V3.16406H1.05469V1.05469ZM3.16406 25.9453H1.05469V23.8359H3.16406V25.9453ZM25.9453 25.9453H23.8359V23.8359H25.9453V25.9453ZM24.3633 6.64453H9.2813V5.58984C9.2813 5.29859 9.04521 5.0625 8.75396 5.0625H5.5899C5.29864 5.0625 5.06255 5.29859 5.06255 5.58984V8.75391C5.06255 9.04516 5.29864 9.28125 5.5899 9.28125H6.64458V14.4491C6.64458 14.7403 6.88068 14.9764 7.17193 14.9764C7.46318 14.9764 7.69927 14.7403 7.69927 14.4491V9.28125H8.75396C9.04521 9.28125 9.2813 9.04516 9.2813 8.75391V7.69922H24.3633V22.7812H23.3086C23.0173 22.7812 22.7812 23.0173 22.7812 23.3086V24.3633H7.69922V19.1952C7.69922 18.9039 7.46313 18.6678 7.17188 18.6678C6.88062 18.6678 6.64453 18.9039 6.64453 19.1952V24.3633H4.21875V23.3086C4.21875 23.0173 3.98266 22.7812 3.69141 22.7812H2.63672V4.21875H3.69141C3.98266 4.21875 4.21875 3.98266 4.21875 3.69141V2.63672H22.7812V3.69141C22.7812 3.98266 23.0173 4.21875 23.3085 4.21875H24.3632V6.64453H24.3633ZM6.11719 8.22656V6.11719H8.22656V8.22656H6.11719Z" fill="#A8A8A8"/>
<path d="M10.5898 12.9777C10.881 12.9777 11.1171 12.7416 11.1171 12.4504V11.8591L20.205 20.9469H19.6137C19.3224 20.9469 19.0864 21.183 19.0864 21.4743C19.0864 21.7655 19.3224 22.0016 19.6137 22.0016H21.4781C21.7694 22.0016 22.0055 21.7655 22.0055 21.4743V19.6098C22.0055 19.3186 21.7694 19.0825 21.4781 19.0825C21.1869 19.0825 20.9508 19.3186 20.9508 19.6098V20.2012L11.863 11.1133H12.4543C12.7455 11.1133 12.9816 10.8772 12.9816 10.5859C12.9816 10.2947 12.7455 10.0586 12.4543 10.0586H10.5898C10.2986 10.0586 10.0625 10.2947 10.0625 10.5859V12.4504C10.0624 12.7416 10.2986 12.9777 10.5898 12.9777Z" fill="#A8A8A8"/>
<path d="M7.16797 17.3478C7.45922 17.3478 7.69531 17.1117 7.69531 16.8205V16.8201C7.69531 16.5288 7.45922 16.293 7.16797 16.293C6.87672 16.293 6.64062 16.5292 6.64062 16.8205C6.64062 17.1117 6.87672 17.3478 7.16797 17.3478Z" fill="#A8A8A8"/>
</g>
<defs>
<clipPath id="clip0_1_914">
<rect width="27" height="27" fill="white"/>
</clipPath>
</defs>
</svg>
